# Wavefront OBJ file automatically generated by Tiled2Unity

# Vertices (Count = 413)
v 0 -16 0
v -16 -16 0
v -16 0 0
v 0 0 0
v -32 -16 0
v -32 0 0
v -48 -16 0
v -48 0 0
v -64 -16 0
v -64 0 0
v -80 -16 0
v -80 0 0
v -96 -16 0
v -96 0 0
v -112 -16 0
v -112 0 0
v -128 -16 0
v -128 0 0
v -144 -16 0
v -144 0 0
v -160 -16 0
v -160 0 0
v -176 -16 0
v -176 0 0
v -192 -16 0
v -192 0 0
v -208 -16 0
v -208 0 0
v -224 -16 0
v -224 0 0
v -240 -16 0
v -240 0 0
v -256 -16 0
v -256 0 0
v -272 -16 0
v -272 0 0
v -288 -16 0
v -288 0 0
v -304 -16 0
v -304 0 0
v -320 -16 0
v -320 0 0
v -336 -16 0
v -336 0 0
v -352 -16 0
v -352 0 0
v -368 -16 0
v -368 0 0
v -384 -16 0
v -384 0 0
v -400 -16 0
v -400 0 0
v -416 -16 0
v -416 0 0
v -432 -16 0
v -432 0 0
v -448 -16 0
v -448 0 0
v -464 -16 0
v -464 0 0
v -480 -16 0
v -480 0 0
v -496 -16 0
v -496 0 0
v -512 -16 0
v -512 0 0
v -96 -32 0
v -112 -32 0
v -128 -32 0
v -144 -32 0
v -448 -32 0
v -464 -32 0
v -480 -32 0
v -496 -32 0
v -512 -32 0
v -96 -48 0
v -112 -48 0
v -128 -48 0
v -144 -48 0
v -448 -48 0
v -464 -48 0
v -480 -48 0
v -496 -48 0
v -512 -48 0
v -448 -64 0
v -464 -64 0
v -480 -64 0
v -496 -64 0
v -512 -64 0
v -448 -80 0
v -464 -80 0
v -480 -80 0
v -496 -80 0
v -512 -80 0
v 0 -96 0
v -16 -96 0
v -16 -80 0
v 0 -80 0
v -32 -96 0
v -32 -80 0
v -48 -96 0
v -48 -80 0
v -448 -96 0
v -464 -96 0
v -480 -96 0
v -496 -96 0
v -512 -96 0
v 0 -112 0
v -16 -112 0
v -32 -112 0
v -48 -112 0
v -368 -112 0
v -384 -112 0
v -384 -96 0
v -368 -96 0
v -400 -112 0
v -400 -96 0
v -448 -112 0
v -464 -112 0
v -480 -112 0
v -496 -112 0
v -512 -112 0
v 0 -128 0
v -16 -128 0
v -32 -128 0
v -48 -128 0
v -368 -128 0
v -384 -128 0
v -400 -128 0
v -448 -128 0
v -464 -128 0
v -480 -128 0
v -496 -128 0
v -512 -128 0
v 0 -144 0
v -16 -144 0
v -32 -144 0
v -48 -144 0
v -448 -144 0
v -464 -144 0
v -480 -144 0
v -496 -144 0
v -512 -144 0
v 0 -160 0
v -16 -160 0
v -32 -160 0
v -48 -160 0
v -448 -160 0
v -464 -160 0
v -480 -160 0
v -496 -160 0
v -512 -160 0
v 0 -176 0
v -16 -176 0
v -32 -176 0
v -48 -176 0
v -96 -176 0
v -112 -176 0
v -112 -160 0
v -96 -160 0
v -128 -176 0
v -128 -160 0
v -448 -176 0
v -464 -176 0
v -480 -176 0
v -496 -176 0
v -512 -176 0
v 0 -192 0
v -16 -192 0
v -32 -192 0
v -48 -192 0
v -96 -192 0
v -112 -192 0
v -128 -192 0
v -448 -192 0
v -464 -192 0
v -480 -192 0
v -496 -192 0
v -512 -192 0
v 0 -208 0
v -16 -208 0
v -32 -208 0
v -48 -208 0
v -96 -208 0
v -112 -208 0
v -128 -208 0
v -448 -208 0
v -464 -208 0
v -480 -208 0
v -496 -208 0
v -512 -208 0
v 0 -224 0
v -16 -224 0
v -32 -224 0
v -48 -224 0
v -496 -224 0
v -512 -224 0
v 0 -240 0
v -16 -240 0
v -32 -240 0
v -48 -240 0
v -496 -240 0
v -512 -240 0
v 0 -256 0
v -16 -256 0
v -32 -256 0
v -48 -256 0
v -496 -256 0
v -512 -256 0
v 0 -272 0
v -16 -272 0
v -32 -272 0
v -48 -272 0
v -496 -272 0
v -512 -272 0
v 0 -288 0
v -16 -288 0
v -32 -288 0
v -48 -288 0
v -64 -288 0
v -64 -272 0
v -80 -288 0
v -80 -272 0
v -96 -288 0
v -96 -272 0
v -112 -288 0
v -112 -272 0
v -128 -288 0
v -128 -272 0
v -144 -288 0
v -144 -272 0
v -160 -288 0
v -160 -272 0
v -176 -288 0
v -176 -272 0
v -336 -288 0
v -352 -288 0
v -352 -272 0
v -336 -272 0
v -368 -288 0
v -368 -272 0
v -384 -288 0
v -384 -272 0
v -400 -288 0
v -400 -272 0
v -416 -288 0
v -416 -272 0
v -432 -288 0
v -432 -272 0
v -448 -288 0
v -448 -272 0
v -464 -288 0
v -464 -272 0
v -480 -288 0
v -480 -272 0
v -496 -288 0
v -512 -288 0
v -160 -48 0
v -160 -32 0
v -176 -48 0
v -176 -32 0
v -192 -48 0
v -192 -32 0
v -208 -48 0
v -208 -32 0
v -224 -48 0
v -224 -32 0
v -240 -48 0
v -240 -32 0
v -256 -48 0
v -256 -32 0
v -272 -48 0
v -272 -32 0
v -288 -48 0
v -288 -32 0
v -304 -48 0
v -304 -32 0
v -320 -48 0
v -320 -32 0
v -336 -48 0
v -336 -32 0
v -352 -48 0
v -352 -32 0
v -368 -48 0
v -368 -32 0
v -384 -48 0
v -384 -32 0
v -400 -48 0
v -400 -32 0
v -416 -48 0
v -416 -32 0
v -432 -48 0
v -432 -32 0
v -144 -64 0
v -160 -64 0
v -176 -64 0
v -192 -64 0
v -208 -64 0
v -224 -64 0
v -240 -64 0
v -256 -64 0
v -272 -64 0
v -288 -64 0
v -304 -64 0
v -320 -64 0
v -336 -64 0
v -352 -64 0
v -368 -64 0
v -384 -64 0
v -400 -64 0
v -416 -64 0
v -432 -64 0
v -64 -112 0
v -64 -96 0
v -80 -112 0
v -80 -96 0
v -96 -112 0
v -96 -96 0
v -112 -112 0
v -112 -96 0
v -128 -112 0
v -128 -96 0
v -144 -112 0
v -144 -96 0
v -160 -112 0
v -160 -96 0
v -176 -112 0
v -176 -96 0
v -192 -112 0
v -192 -96 0
v -208 -112 0
v -208 -96 0
v -224 -112 0
v -224 -96 0
v -240 -112 0
v -240 -96 0
v -256 -112 0
v -256 -96 0
v -272 -112 0
v -272 -96 0
v -288 -112 0
v -288 -96 0
v -304 -112 0
v -304 -96 0
v -320 -112 0
v -320 -96 0
v -336 -112 0
v -336 -96 0
v -352 -112 0
v -352 -96 0
v -64 -128 0
v -80 -128 0
v -96 -128 0
v -112 -128 0
v -128 -128 0
v -144 -128 0
v -160 -128 0
v -176 -128 0
v -192 -128 0
v -208 -128 0
v -224 -128 0
v -240 -128 0
v -256 -128 0
v -272 -128 0
v -288 -128 0
v -304 -128 0
v -320 -128 0
v -336 -128 0
v -352 -128 0
v -144 -192 0
v -144 -176 0
v -160 -192 0
v -160 -176 0
v -176 -192 0
v -176 -176 0
v -192 -192 0
v -192 -176 0
v -208 -192 0
v -208 -176 0
v -224 -192 0
v -224 -176 0
v -240 -192 0
v -240 -176 0
v -256 -192 0
v -256 -176 0
v -272 -192 0
v -272 -176 0
v -288 -192 0
v -288 -176 0
v -304 -192 0
v -304 -176 0
v -320 -192 0
v -320 -176 0
v -336 -192 0
v -336 -176 0
v -352 -192 0
v -352 -176 0
v -368 -192 0
v -368 -176 0
v -384 -192 0
v -384 -176 0
v -400 -192 0
v -400 -176 0
v -416 -192 0
v -416 -176 0
v -432 -192 0
v -432 -176 0
v -432 -96 0
v -432 -80 0
v -432 -112 0
v -432 -128 0
v -432 -144 0
v -432 -160 0

# Texture cooridinates (Count = 32)
vt 0.2916718 0.7916718
vt 0.3333282 0.7916718
vt 0.3333282 0.8333282
vt 0.2916718 0.8333282
vt 0.3333384 0.7916718
vt 0.3749949 0.7916718
vt 0.3749949 0.8333282
vt 0.3333384 0.8333282
vt 0.1036704 0.2307993
vt 0.2012076 0.2307993
vt 0.2012076 0.476893
vt 0.1036704 0.476893
vt 0.6219631 0.2307993
vt 0.7195003 0.2307993
vt 0.7195003 0.476893
vt 0.6219631 0.476893
vt 0.207329 0.2307993
vt 0.3048661 0.2307993
vt 0.3048661 0.476893
vt 0.207329 0.476893
vt 0.08333842 0.3333384
vt 0.1249949 0.3333384
vt 0.1249949 0.3749949
vt 0.08333842 0.3749949
vt 1.19093E-05 0.7538762
vt 0.09754907 0.7538762
vt 0.09754907 0.99997
vt 1.19093E-05 0.99997
vt 0.5183046 0.4923378
vt 0.6158417 0.4923378
vt 0.6158417 0.7384315
vt 0.5183046 0.7384315

# Normal
vn 0 0 -1

# Groups (Count = 3)

g mesh_0001
f 1/1/1 2/2/1 3/3/1 4/4/1
f 2/1/1 5/2/1 6/3/1 3/4/1
f 5/1/1 7/2/1 8/3/1 6/4/1
f 7/1/1 9/2/1 10/3/1 8/4/1
f 9/1/1 11/2/1 12/3/1 10/4/1
f 11/1/1 13/2/1 14/3/1 12/4/1
f 13/1/1 15/2/1 16/3/1 14/4/1
f 15/5/1 17/6/1 18/7/1 16/8/1
f 17/1/1 19/2/1 20/3/1 18/4/1
f 19/1/1 21/2/1 22/3/1 20/4/1
f 21/1/1 23/2/1 24/3/1 22/4/1
f 23/1/1 25/2/1 26/3/1 24/4/1
f 25/1/1 27/2/1 28/3/1 26/4/1
f 27/1/1 29/2/1 30/3/1 28/4/1
f 29/1/1 31/2/1 32/3/1 30/4/1
f 31/1/1 33/2/1 34/3/1 32/4/1
f 33/1/1 35/2/1 36/3/1 34/4/1
f 35/1/1 37/2/1 38/3/1 36/4/1
f 37/1/1 39/2/1 40/3/1 38/4/1
f 39/1/1 41/2/1 42/3/1 40/4/1
f 41/1/1 43/2/1 44/3/1 42/4/1
f 43/1/1 45/2/1 46/3/1 44/4/1
f 45/1/1 47/2/1 48/3/1 46/4/1
f 47/1/1 49/2/1 50/3/1 48/4/1
f 49/1/1 51/2/1 52/3/1 50/4/1
f 51/1/1 53/2/1 54/3/1 52/4/1
f 53/1/1 55/2/1 56/3/1 54/4/1
f 55/1/1 57/2/1 58/3/1 56/4/1
f 57/1/1 59/2/1 60/3/1 58/4/1
f 59/1/1 61/2/1 62/3/1 60/4/1
f 61/1/1 63/2/1 64/3/1 62/4/1
f 63/1/1 65/2/1 66/3/1 64/4/1
f 67/1/1 68/2/1 15/3/1 13/4/1
f 68/5/1 69/6/1 17/7/1 15/8/1
f 69/1/1 70/2/1 19/3/1 17/4/1
f 71/1/1 72/2/1 59/3/1 57/4/1
f 72/5/1 73/6/1 61/7/1 59/8/1
f 73/5/1 74/6/1 63/7/1 61/8/1
f 74/1/1 75/2/1 65/3/1 63/4/1
f 76/1/1 77/2/1 68/3/1 67/4/1
f 77/1/1 78/2/1 69/3/1 68/4/1
f 78/1/1 79/2/1 70/3/1 69/4/1
f 80/1/1 81/2/1 72/3/1 71/4/1
f 81/5/1 82/6/1 73/7/1 72/8/1
f 82/5/1 83/6/1 74/7/1 73/8/1
f 83/1/1 84/2/1 75/3/1 74/4/1
f 85/1/1 86/2/1 81/3/1 80/4/1
f 86/5/1 87/6/1 82/7/1 81/8/1
f 87/5/1 88/6/1 83/7/1 82/8/1
f 88/1/1 89/2/1 84/3/1 83/4/1
f 90/1/1 91/2/1 86/3/1 85/4/1
f 91/5/1 92/6/1 87/7/1 86/8/1
f 92/5/1 93/6/1 88/7/1 87/8/1
f 93/1/1 94/2/1 89/3/1 88/4/1
f 95/1/1 96/2/1 97/3/1 98/4/1
f 96/1/1 99/2/1 100/3/1 97/4/1
f 99/1/1 101/2/1 102/3/1 100/4/1
f 103/1/1 104/2/1 91/3/1 90/4/1
f 104/5/1 105/6/1 92/7/1 91/8/1
f 105/5/1 106/6/1 93/7/1 92/8/1
f 106/1/1 107/2/1 94/3/1 93/4/1
f 108/1/1 109/2/1 96/3/1 95/4/1
f 109/5/1 110/6/1 99/7/1 96/8/1
f 110/1/1 111/2/1 101/3/1 99/4/1
f 112/1/1 113/2/1 114/3/1 115/4/1
f 113/1/1 116/2/1 117/3/1 114/4/1
f 118/1/1 119/2/1 104/3/1 103/4/1
f 119/5/1 120/6/1 105/7/1 104/8/1
f 120/5/1 121/6/1 106/7/1 105/8/1
f 121/1/1 122/2/1 107/3/1 106/4/1
f 123/1/1 124/2/1 109/3/1 108/4/1
f 124/5/1 125/6/1 110/7/1 109/8/1
f 125/1/1 126/2/1 111/3/1 110/4/1
f 127/1/1 128/2/1 113/3/1 112/4/1
f 128/1/1 129/2/1 116/3/1 113/4/1
f 130/1/1 131/2/1 119/3/1 118/4/1
f 131/5/1 132/6/1 120/7/1 119/8/1
f 132/5/1 133/6/1 121/7/1 120/8/1
f 133/1/1 134/2/1 122/3/1 121/4/1
f 135/1/1 136/2/1 124/3/1 123/4/1
f 136/5/1 137/6/1 125/7/1 124/8/1
f 137/1/1 138/2/1 126/3/1 125/4/1
f 139/1/1 140/2/1 131/3/1 130/4/1
f 140/5/1 141/6/1 132/7/1 131/8/1
f 141/5/1 142/6/1 133/7/1 132/8/1
f 142/1/1 143/2/1 134/3/1 133/4/1
f 144/1/1 145/2/1 136/3/1 135/4/1
f 145/5/1 146/6/1 137/7/1 136/8/1
f 146/1/1 147/2/1 138/3/1 137/4/1
f 148/1/1 149/2/1 140/3/1 139/4/1
f 149/5/1 150/6/1 141/7/1 140/8/1
f 150/5/1 151/6/1 142/7/1 141/8/1
f 151/1/1 152/2/1 143/3/1 142/4/1
f 153/1/1 154/2/1 145/3/1 144/4/1
f 154/5/1 155/6/1 146/7/1 145/8/1
f 155/1/1 156/2/1 147/3/1 146/4/1
f 157/1/1 158/2/1 159/3/1 160/4/1
f 158/1/1 161/2/1 162/3/1 159/4/1
f 163/1/1 164/2/1 149/3/1 148/4/1
f 164/5/1 165/6/1 150/7/1 149/8/1
f 165/5/1 166/6/1 151/7/1 150/8/1
f 166/1/1 167/2/1 152/3/1 151/4/1
f 168/1/1 169/2/1 154/3/1 153/4/1
f 169/5/1 170/6/1 155/7/1 154/8/1
f 170/1/1 171/2/1 156/3/1 155/4/1
f 172/1/1 173/2/1 158/3/1 157/4/1
f 173/1/1 174/2/1 161/3/1 158/4/1
f 175/1/1 176/2/1 164/3/1 163/4/1
f 176/5/1 177/6/1 165/7/1 164/8/1
f 177/5/1 178/6/1 166/7/1 165/8/1
f 178/1/1 179/2/1 167/3/1 166/4/1
f 180/1/1 181/2/1 169/3/1 168/4/1
f 181/5/1 182/6/1 170/7/1 169/8/1
f 182/1/1 183/2/1 171/3/1 170/4/1
f 184/1/1 185/2/1 173/3/1 172/4/1
f 185/1/1 186/2/1 174/3/1 173/4/1
f 187/1/1 188/2/1 176/3/1 175/4/1
f 188/1/1 189/2/1 177/3/1 176/4/1
f 189/1/1 190/2/1 178/3/1 177/4/1
f 190/1/1 191/2/1 179/3/1 178/4/1
f 192/1/1 193/2/1 181/3/1 180/4/1
f 193/5/1 194/6/1 182/7/1 181/8/1
f 194/1/1 195/2/1 183/3/1 182/4/1
f 196/1/1 197/2/1 191/3/1 190/4/1
f 198/1/1 199/2/1 193/3/1 192/4/1
f 199/5/1 200/6/1 194/7/1 193/8/1
f 200/1/1 201/2/1 195/3/1 194/4/1
f 202/1/1 203/2/1 197/3/1 196/4/1
f 204/1/1 205/2/1 199/3/1 198/4/1
f 205/5/1 206/6/1 200/7/1 199/8/1
f 206/1/1 207/2/1 201/3/1 200/4/1
f 208/1/1 209/2/1 203/3/1 202/4/1
f 210/1/1 211/2/1 205/3/1 204/4/1
f 211/5/1 212/6/1 206/7/1 205/8/1
f 212/1/1 213/2/1 207/3/1 206/4/1
f 214/1/1 215/2/1 209/3/1 208/4/1
f 216/1/1 217/2/1 211/3/1 210/4/1
f 217/1/1 218/2/1 212/3/1 211/4/1
f 218/1/1 219/2/1 213/3/1 212/4/1
f 219/1/1 220/2/1 221/3/1 213/4/1
f 220/1/1 222/2/1 223/3/1 221/4/1
f 222/1/1 224/2/1 225/3/1 223/4/1
f 224/1/1 226/2/1 227/3/1 225/4/1
f 226/1/1 228/2/1 229/3/1 227/4/1
f 228/1/1 230/2/1 231/3/1 229/4/1
f 230/1/1 232/2/1 233/3/1 231/4/1
f 232/1/1 234/2/1 235/3/1 233/4/1
f 236/1/1 237/2/1 238/3/1 239/4/1
f 237/1/1 240/2/1 241/3/1 238/4/1
f 240/1/1 242/2/1 243/3/1 241/4/1
f 242/1/1 244/2/1 245/3/1 243/4/1
f 244/1/1 246/2/1 247/3/1 245/4/1
f 246/1/1 248/2/1 249/3/1 247/4/1
f 248/1/1 250/2/1 251/3/1 249/4/1
f 250/1/1 252/2/1 253/3/1 251/4/1
f 252/1/1 254/2/1 255/3/1 253/4/1
f 254/1/1 256/2/1 214/3/1 255/4/1
f 256/1/1 257/2/1 215/3/1 214/4/1

g mesh_0002
f 79/9/1 258/10/1 259/11/1 70/12/1
f 258/9/1 260/10/1 261/11/1 259/12/1
f 260/9/1 262/10/1 263/11/1 261/12/1
f 262/9/1 264/10/1 265/11/1 263/12/1
f 264/9/1 266/10/1 267/11/1 265/12/1
f 266/9/1 268/10/1 269/11/1 267/12/1
f 268/9/1 270/10/1 271/11/1 269/12/1
f 270/9/1 272/10/1 273/11/1 271/12/1
f 272/9/1 274/10/1 275/11/1 273/12/1
f 274/9/1 276/10/1 277/11/1 275/12/1
f 276/9/1 278/10/1 279/11/1 277/12/1
f 278/9/1 280/10/1 281/11/1 279/12/1
f 280/9/1 282/10/1 283/11/1 281/12/1
f 282/9/1 284/10/1 285/11/1 283/12/1
f 284/9/1 286/10/1 287/11/1 285/12/1
f 286/9/1 288/10/1 289/11/1 287/12/1
f 288/9/1 290/10/1 291/11/1 289/12/1
f 290/9/1 292/10/1 293/11/1 291/12/1
f 292/9/1 80/10/1 71/11/1 293/12/1
f 294/13/1 295/14/1 258/15/1 79/16/1
f 295/13/1 296/14/1 260/15/1 258/16/1
f 296/13/1 297/14/1 262/15/1 260/16/1
f 297/13/1 298/14/1 264/15/1 262/16/1
f 298/13/1 299/14/1 266/15/1 264/16/1
f 299/13/1 300/14/1 268/15/1 266/16/1
f 300/13/1 301/14/1 270/15/1 268/16/1
f 301/13/1 302/14/1 272/15/1 270/16/1
f 302/13/1 303/14/1 274/15/1 272/16/1
f 303/13/1 304/14/1 276/15/1 274/16/1
f 304/13/1 305/14/1 278/15/1 276/16/1
f 305/13/1 306/14/1 280/15/1 278/16/1
f 306/13/1 307/14/1 282/15/1 280/16/1
f 307/13/1 308/14/1 284/15/1 282/16/1
f 308/13/1 309/14/1 286/15/1 284/16/1
f 309/13/1 310/14/1 288/15/1 286/16/1
f 310/13/1 311/14/1 290/15/1 288/16/1
f 311/13/1 312/14/1 292/15/1 290/16/1
f 312/13/1 85/14/1 80/15/1 292/16/1
f 111/9/1 313/10/1 314/11/1 101/12/1
f 313/9/1 315/10/1 316/11/1 314/12/1
f 315/9/1 317/10/1 318/11/1 316/12/1
f 317/9/1 319/10/1 320/11/1 318/12/1
f 319/9/1 321/10/1 322/11/1 320/12/1
f 321/9/1 323/10/1 324/11/1 322/12/1
f 323/9/1 325/10/1 326/11/1 324/12/1
f 325/9/1 327/10/1 328/11/1 326/12/1
f 327/9/1 329/10/1 330/11/1 328/12/1
f 329/9/1 331/10/1 332/11/1 330/12/1
f 331/9/1 333/10/1 334/11/1 332/12/1
f 333/9/1 335/10/1 336/11/1 334/12/1
f 335/9/1 337/10/1 338/11/1 336/12/1
f 337/9/1 339/10/1 340/11/1 338/12/1
f 339/9/1 341/10/1 342/11/1 340/12/1
f 341/9/1 343/10/1 344/11/1 342/12/1
f 343/9/1 345/10/1 346/11/1 344/12/1
f 345/9/1 347/10/1 348/11/1 346/12/1
f 347/9/1 349/10/1 350/11/1 348/12/1
f 349/9/1 112/10/1 115/11/1 350/12/1
f 126/13/1 351/14/1 313/15/1 111/16/1
f 351/13/1 352/14/1 315/15/1 313/16/1
f 352/13/1 353/14/1 317/15/1 315/16/1
f 353/13/1 354/14/1 319/15/1 317/16/1
f 354/13/1 355/14/1 321/15/1 319/16/1
f 355/13/1 356/14/1 323/15/1 321/16/1
f 356/13/1 357/14/1 325/15/1 323/16/1
f 357/13/1 358/14/1 327/15/1 325/16/1
f 358/13/1 359/14/1 329/15/1 327/16/1
f 359/13/1 360/14/1 331/15/1 329/16/1
f 360/13/1 361/14/1 333/15/1 331/16/1
f 361/13/1 362/14/1 335/15/1 333/16/1
f 362/13/1 363/14/1 337/15/1 335/16/1
f 363/13/1 364/14/1 339/15/1 337/16/1
f 364/13/1 365/14/1 341/15/1 339/16/1
f 365/13/1 366/14/1 343/15/1 341/16/1
f 366/13/1 367/14/1 345/15/1 343/16/1
f 367/13/1 368/14/1 347/15/1 345/16/1
f 368/13/1 369/14/1 349/15/1 347/16/1
f 369/13/1 127/14/1 112/15/1 349/16/1
f 174/17/1 370/18/1 371/19/1 161/20/1
f 370/17/1 372/18/1 373/19/1 371/20/1
f 372/17/1 374/18/1 375/19/1 373/20/1
f 374/17/1 376/18/1 377/19/1 375/20/1
f 376/17/1 378/18/1 379/19/1 377/20/1
f 378/17/1 380/18/1 381/19/1 379/20/1
f 380/17/1 382/18/1 383/19/1 381/20/1
f 382/17/1 384/18/1 385/19/1 383/20/1
f 384/17/1 386/18/1 387/19/1 385/20/1
f 386/17/1 388/18/1 389/19/1 387/20/1
f 388/17/1 390/18/1 391/19/1 389/20/1
f 390/17/1 392/18/1 393/19/1 391/20/1
f 392/17/1 394/18/1 395/19/1 393/20/1
f 394/17/1 396/18/1 397/19/1 395/20/1
f 396/17/1 398/18/1 399/19/1 397/20/1
f 398/17/1 400/18/1 401/19/1 399/20/1
f 400/17/1 402/18/1 403/19/1 401/20/1
f 402/17/1 404/18/1 405/19/1 403/20/1
f 404/17/1 406/18/1 407/19/1 405/20/1
f 406/17/1 175/18/1 163/19/1 407/20/1

g mesh_0003
f 408/21/1 103/22/1 90/23/1 409/24/1
f 410/21/1 118/22/1 103/23/1 408/24/1
f 411/21/1 130/22/1 118/23/1 410/24/1
f 412/21/1 139/22/1 130/23/1 411/24/1
f 413/21/1 148/22/1 139/23/1 412/24/1

g mesh_0004
f 1/25/1 2/26/1 3/27/1 4/28/1
f 2/25/1 5/26/1 6/27/1 3/28/1
f 5/25/1 7/26/1 8/27/1 6/28/1
f 7/25/1 9/26/1 10/27/1 8/28/1
f 9/25/1 11/26/1 12/27/1 10/28/1
f 11/25/1 13/26/1 14/27/1 12/28/1
f 13/25/1 15/26/1 16/27/1 14/28/1
f 15/25/1 17/26/1 18/27/1 16/28/1
f 17/25/1 19/26/1 20/27/1 18/28/1
f 19/25/1 21/26/1 22/27/1 20/28/1
f 21/25/1 23/26/1 24/27/1 22/28/1
f 23/25/1 25/26/1 26/27/1 24/28/1
f 25/25/1 27/26/1 28/27/1 26/28/1
f 27/25/1 29/26/1 30/27/1 28/28/1
f 29/25/1 31/26/1 32/27/1 30/28/1
f 31/25/1 33/26/1 34/27/1 32/28/1
f 33/25/1 35/26/1 36/27/1 34/28/1
f 35/25/1 37/26/1 38/27/1 36/28/1
f 37/25/1 39/26/1 40/27/1 38/28/1
f 39/25/1 41/26/1 42/27/1 40/28/1
f 41/25/1 43/26/1 44/27/1 42/28/1
f 43/25/1 45/26/1 46/27/1 44/28/1
f 45/25/1 47/26/1 48/27/1 46/28/1
f 47/25/1 49/26/1 50/27/1 48/28/1
f 49/25/1 51/26/1 52/27/1 50/28/1
f 51/25/1 53/26/1 54/27/1 52/28/1
f 53/25/1 55/26/1 56/27/1 54/28/1
f 55/25/1 57/26/1 58/27/1 56/28/1
f 57/25/1 59/26/1 60/27/1 58/28/1
f 59/25/1 61/26/1 62/27/1 60/28/1
f 61/25/1 63/26/1 64/27/1 62/28/1
f 63/25/1 65/26/1 66/27/1 64/28/1
f 67/25/1 68/26/1 15/27/1 13/28/1
f 68/25/1 69/26/1 17/27/1 15/28/1
f 69/25/1 70/26/1 19/27/1 17/28/1
f 71/25/1 72/26/1 59/27/1 57/28/1
f 72/25/1 73/26/1 61/27/1 59/28/1
f 73/25/1 74/26/1 63/27/1 61/28/1
f 74/25/1 75/26/1 65/27/1 63/28/1
f 76/25/1 77/26/1 68/27/1 67/28/1
f 77/25/1 78/26/1 69/27/1 68/28/1
f 78/25/1 79/26/1 70/27/1 69/28/1
f 80/25/1 81/26/1 72/27/1 71/28/1
f 81/25/1 82/26/1 73/27/1 72/28/1
f 82/25/1 83/26/1 74/27/1 73/28/1
f 83/25/1 84/26/1 75/27/1 74/28/1
f 85/25/1 86/26/1 81/27/1 80/28/1
f 86/25/1 87/26/1 82/27/1 81/28/1
f 87/25/1 88/26/1 83/27/1 82/28/1
f 88/25/1 89/26/1 84/27/1 83/28/1
f 90/25/1 91/26/1 86/27/1 85/28/1
f 91/25/1 92/26/1 87/27/1 86/28/1
f 92/25/1 93/26/1 88/27/1 87/28/1
f 93/25/1 94/26/1 89/27/1 88/28/1
f 95/25/1 96/26/1 97/27/1 98/28/1
f 96/25/1 99/26/1 100/27/1 97/28/1
f 99/25/1 101/26/1 102/27/1 100/28/1
f 408/29/1 103/30/1 90/31/1 409/32/1
f 103/25/1 104/26/1 91/27/1 90/28/1
f 104/25/1 105/26/1 92/27/1 91/28/1
f 105/25/1 106/26/1 93/27/1 92/28/1
f 106/25/1 107/26/1 94/27/1 93/28/1
f 108/25/1 109/26/1 96/27/1 95/28/1
f 109/25/1 110/26/1 99/27/1 96/28/1
f 110/25/1 111/26/1 101/27/1 99/28/1
f 112/25/1 113/26/1 114/27/1 115/28/1
f 113/25/1 116/26/1 117/27/1 114/28/1
f 410/29/1 118/30/1 103/31/1 408/32/1
f 118/25/1 119/26/1 104/27/1 103/28/1
f 119/25/1 120/26/1 105/27/1 104/28/1
f 120/25/1 121/26/1 106/27/1 105/28/1
f 121/25/1 122/26/1 107/27/1 106/28/1
f 123/25/1 124/26/1 109/27/1 108/28/1
f 124/25/1 125/26/1 110/27/1 109/28/1
f 125/25/1 126/26/1 111/27/1 110/28/1
f 127/25/1 128/26/1 113/27/1 112/28/1
f 128/25/1 129/26/1 116/27/1 113/28/1
f 411/29/1 130/30/1 118/31/1 410/32/1
f 130/25/1 131/26/1 119/27/1 118/28/1
f 131/25/1 132/26/1 120/27/1 119/28/1
f 132/25/1 133/26/1 121/27/1 120/28/1
f 133/25/1 134/26/1 122/27/1 121/28/1
f 135/25/1 136/26/1 124/27/1 123/28/1
f 136/25/1 137/26/1 125/27/1 124/28/1
f 137/25/1 138/26/1 126/27/1 125/28/1
f 412/29/1 139/30/1 130/31/1 411/32/1
f 139/25/1 140/26/1 131/27/1 130/28/1
f 140/25/1 141/26/1 132/27/1 131/28/1
f 141/25/1 142/26/1 133/27/1 132/28/1
f 142/25/1 143/26/1 134/27/1 133/28/1
f 144/25/1 145/26/1 136/27/1 135/28/1
f 145/25/1 146/26/1 137/27/1 136/28/1
f 146/25/1 147/26/1 138/27/1 137/28/1
f 413/29/1 148/30/1 139/31/1 412/32/1
f 148/25/1 149/26/1 140/27/1 139/28/1
f 149/25/1 150/26/1 141/27/1 140/28/1
f 150/25/1 151/26/1 142/27/1 141/28/1
f 151/25/1 152/26/1 143/27/1 142/28/1
f 153/25/1 154/26/1 145/27/1 144/28/1
f 154/25/1 155/26/1 146/27/1 145/28/1
f 155/25/1 156/26/1 147/27/1 146/28/1
f 157/25/1 158/26/1 159/27/1 160/28/1
f 158/25/1 161/26/1 162/27/1 159/28/1
f 163/25/1 164/26/1 149/27/1 148/28/1
f 164/25/1 165/26/1 150/27/1 149/28/1
f 165/25/1 166/26/1 151/27/1 150/28/1
f 166/25/1 167/26/1 152/27/1 151/28/1
f 168/25/1 169/26/1 154/27/1 153/28/1
f 169/25/1 170/26/1 155/27/1 154/28/1
f 170/25/1 171/26/1 156/27/1 155/28/1
f 172/25/1 173/26/1 158/27/1 157/28/1
f 173/25/1 174/26/1 161/27/1 158/28/1
f 175/25/1 176/26/1 164/27/1 163/28/1
f 176/25/1 177/26/1 165/27/1 164/28/1
f 177/25/1 178/26/1 166/27/1 165/28/1
f 178/25/1 179/26/1 167/27/1 166/28/1
f 180/25/1 181/26/1 169/27/1 168/28/1
f 181/25/1 182/26/1 170/27/1 169/28/1
f 182/25/1 183/26/1 171/27/1 170/28/1
f 184/25/1 185/26/1 173/27/1 172/28/1
f 185/25/1 186/26/1 174/27/1 173/28/1
f 187/25/1 188/26/1 176/27/1 175/28/1
f 188/25/1 189/26/1 177/27/1 176/28/1
f 189/25/1 190/26/1 178/27/1 177/28/1
f 190/25/1 191/26/1 179/27/1 178/28/1
f 192/25/1 193/26/1 181/27/1 180/28/1
f 193/25/1 194/26/1 182/27/1 181/28/1
f 194/25/1 195/26/1 183/27/1 182/28/1
f 196/25/1 197/26/1 191/27/1 190/28/1
f 198/25/1 199/26/1 193/27/1 192/28/1
f 199/25/1 200/26/1 194/27/1 193/28/1
f 200/25/1 201/26/1 195/27/1 194/28/1
f 202/25/1 203/26/1 197/27/1 196/28/1
f 204/25/1 205/26/1 199/27/1 198/28/1
f 205/25/1 206/26/1 200/27/1 199/28/1
f 206/25/1 207/26/1 201/27/1 200/28/1
f 208/25/1 209/26/1 203/27/1 202/28/1
f 210/25/1 211/26/1 205/27/1 204/28/1
f 211/25/1 212/26/1 206/27/1 205/28/1
f 212/25/1 213/26/1 207/27/1 206/28/1
f 214/25/1 215/26/1 209/27/1 208/28/1
f 216/25/1 217/26/1 211/27/1 210/28/1
f 217/25/1 218/26/1 212/27/1 211/28/1
f 218/25/1 219/26/1 213/27/1 212/28/1
f 219/25/1 220/26/1 221/27/1 213/28/1
f 220/25/1 222/26/1 223/27/1 221/28/1
f 222/25/1 224/26/1 225/27/1 223/28/1
f 224/25/1 226/26/1 227/27/1 225/28/1
f 226/25/1 228/26/1 229/27/1 227/28/1
f 228/25/1 230/26/1 231/27/1 229/28/1
f 230/25/1 232/26/1 233/27/1 231/28/1
f 232/25/1 234/26/1 235/27/1 233/28/1
f 236/25/1 237/26/1 238/27/1 239/28/1
f 237/25/1 240/26/1 241/27/1 238/28/1
f 240/25/1 242/26/1 243/27/1 241/28/1
f 242/25/1 244/26/1 245/27/1 243/28/1
f 244/25/1 246/26/1 247/27/1 245/28/1
f 246/25/1 248/26/1 249/27/1 247/28/1
f 248/25/1 250/26/1 251/27/1 249/28/1
f 250/25/1 252/26/1 253/27/1 251/28/1
f 252/25/1 254/26/1 255/27/1 253/28/1
f 254/25/1 256/26/1 214/27/1 255/28/1
f 256/25/1 257/26/1 215/27/1 214/28/1

