# Wavefront OBJ file automatically generated by Tiled2Unity

# Vertices (Count = 382)
v 0 -16 0
v -16 -16 0
v -16 0 0
v 0 0 0
v -64 -16 0
v -80 -16 0
v -80 0 0
v -64 0 0
v -96 -16 0
v -96 0 0
v -112 -16 0
v -112 0 0
v -128 -16 0
v -128 0 0
v -144 -16 0
v -144 0 0
v -160 -16 0
v -160 0 0
v -176 -16 0
v -176 0 0
v -192 -16 0
v -192 0 0
v -208 -16 0
v -208 0 0
v -224 -16 0
v -224 0 0
v -240 -16 0
v -240 0 0
v -256 -16 0
v -256 0 0
v -272 -16 0
v -272 0 0
v -288 -16 0
v -288 0 0
v -304 -16 0
v -304 0 0
v -320 -16 0
v -320 0 0
v -336 -16 0
v -336 0 0
v -352 -16 0
v -352 0 0
v -368 -16 0
v -368 0 0
v -384 -16 0
v -384 0 0
v -400 -16 0
v -400 0 0
v -416 -16 0
v -416 0 0
v -432 -16 0
v -432 0 0
v -448 -16 0
v -448 0 0
v -464 -16 0
v -464 0 0
v -480 -16 0
v -480 0 0
v -496 -16 0
v -496 0 0
v -512 -16 0
v -512 0 0
v 0 -32 0
v -16 -32 0
v -64 -32 0
v -80 -32 0
v -256 -32 0
v -272 -32 0
v -288 -32 0
v 0 -48 0
v -16 -48 0
v -64 -48 0
v -80 -48 0
v -256 -48 0
v -272 -48 0
v -288 -48 0
v 0 -64 0
v -16 -64 0
v -64 -64 0
v -80 -64 0
v -256 -64 0
v -272 -64 0
v -288 -64 0
v 0 -80 0
v -16 -80 0
v -64 -80 0
v -80 -80 0
v -128 -80 0
v -144 -80 0
v -144 -64 0
v -128 -64 0
v -160 -80 0
v -160 -64 0
v -176 -80 0
v -176 -64 0
v -192 -80 0
v -192 -64 0
v -208 -80 0
v -208 -64 0
v -224 -80 0
v -224 -64 0
v -240 -80 0
v -240 -64 0
v -256 -80 0
v -272 -80 0
v -288 -80 0
v -432 -80 0
v -448 -80 0
v -448 -64 0
v -432 -64 0
v -464 -80 0
v -464 -64 0
v -480 -80 0
v -480 -64 0
v -496 -80 0
v -496 -64 0
v -512 -80 0
v -512 -64 0
v 0 -96 0
v -16 -96 0
v -64 -96 0
v -80 -96 0
v -128 -96 0
v -144 -96 0
v -160 -96 0
v -176 -96 0
v -192 -96 0
v -208 -96 0
v -224 -96 0
v -240 -96 0
v -256 -96 0
v -272 -96 0
v -288 -96 0
v -432 -96 0
v -448 -96 0
v -464 -96 0
v -480 -96 0
v -496 -96 0
v -512 -96 0
v 0 -112 0
v -16 -112 0
v -64 -112 0
v -80 -112 0
v -448 -112 0
v -464 -112 0
v -480 -112 0
v -496 -112 0
v -512 -112 0
v 0 -128 0
v -16 -128 0
v -64 -128 0
v -80 -128 0
v -464 -128 0
v -480 -128 0
v -496 -128 0
v -512 -128 0
v 0 -144 0
v -16 -144 0
v -64 -144 0
v -80 -144 0
v -480 -144 0
v -496 -144 0
v -512 -144 0
v 0 -160 0
v -16 -160 0
v -64 -160 0
v -80 -160 0
v -496 -160 0
v -512 -160 0
v 0 -176 0
v -16 -176 0
v -64 -176 0
v -80 -176 0
v -96 -176 0
v -96 -160 0
v -112 -176 0
v -112 -160 0
v -128 -176 0
v -128 -160 0
v -144 -176 0
v -144 -160 0
v -160 -176 0
v -160 -160 0
v -176 -176 0
v -176 -160 0
v -192 -176 0
v -192 -160 0
v -208 -176 0
v -208 -160 0
v -224 -176 0
v -224 -160 0
v -240 -176 0
v -240 -160 0
v -256 -176 0
v -256 -160 0
v -272 -176 0
v -272 -160 0
v -288 -176 0
v -288 -160 0
v -304 -176 0
v -304 -160 0
v -496 -176 0
v -512 -176 0
v 0 -192 0
v -16 -192 0
v -64 -192 0
v -80 -192 0
v -96 -192 0
v -112 -192 0
v -128 -192 0
v -144 -192 0
v -160 -192 0
v -176 -192 0
v -192 -192 0
v -208 -192 0
v -224 -192 0
v -240 -192 0
v -256 -192 0
v -272 -192 0
v -288 -192 0
v -304 -192 0
v -496 -192 0
v -512 -192 0
v 0 -208 0
v -16 -208 0
v -64 -208 0
v -80 -208 0
v -96 -208 0
v -112 -208 0
v -128 -208 0
v -144 -208 0
v -160 -208 0
v -176 -208 0
v -192 -208 0
v -208 -208 0
v -224 -208 0
v -240 -208 0
v -256 -208 0
v -272 -208 0
v -288 -208 0
v -304 -208 0
v -496 -208 0
v -512 -208 0
v 0 -224 0
v -16 -224 0
v -64 -224 0
v -80 -224 0
v -96 -224 0
v -112 -224 0
v -128 -224 0
v -144 -224 0
v -160 -224 0
v -176 -224 0
v -192 -224 0
v -208 -224 0
v -224 -224 0
v -240 -224 0
v -256 -224 0
v -272 -224 0
v -288 -224 0
v -304 -224 0
v -496 -224 0
v -512 -224 0
v 0 -240 0
v -16 -240 0
v -496 -240 0
v -512 -240 0
v 0 -256 0
v -16 -256 0
v -368 -256 0
v -384 -256 0
v -384 -240 0
v -368 -240 0
v -400 -256 0
v -400 -240 0
v -416 -256 0
v -416 -240 0
v -432 -256 0
v -432 -240 0
v -448 -256 0
v -448 -240 0
v -464 -256 0
v -464 -240 0
v -480 -256 0
v -480 -240 0
v -496 -256 0
v -512 -256 0
v 0 -272 0
v -16 -272 0
v -32 -272 0
v -32 -256 0
v -48 -272 0
v -48 -256 0
v -64 -272 0
v -64 -256 0
v -80 -272 0
v -80 -256 0
v -96 -272 0
v -96 -256 0
v -352 -272 0
v -368 -272 0
v -352 -256 0
v -384 -272 0
v -400 -272 0
v -416 -272 0
v -432 -272 0
v -448 -272 0
v -464 -272 0
v -480 -272 0
v -496 -272 0
v -512 -272 0
v 0 -288 0
v -16 -288 0
v -32 -288 0
v -48 -288 0
v -64 -288 0
v -80 -288 0
v -96 -288 0
v -112 -288 0
v -112 -272 0
v -128 -288 0
v -128 -272 0
v -144 -288 0
v -144 -272 0
v -160 -288 0
v -160 -272 0
v -176 -288 0
v -176 -272 0
v -192 -288 0
v -192 -272 0
v -208 -288 0
v -208 -272 0
v -224 -288 0
v -224 -272 0
v -240 -288 0
v -240 -272 0
v -256 -288 0
v -256 -272 0
v -272 -288 0
v -272 -272 0
v -288 -288 0
v -288 -272 0
v -304 -288 0
v -304 -272 0
v -320 -288 0
v -320 -272 0
v -336 -288 0
v -336 -272 0
v -352 -288 0
v -368 -288 0
v -384 -288 0
v -400 -288 0
v -416 -288 0
v -432 -288 0
v -448 -288 0
v -464 -288 0
v -480 -288 0
v -496 -288 0
v -512 -288 0
v -96 -32 0
v -128 -32 0
v -144 -32 0
v -160 -32 0
v -96 -48 0
v -96 -64 0
v -96 -80 0
v -96 -96 0
v -96 -112 0
v -176 -112 0
v -192 -112 0
v -208 -112 0
v -96 -128 0
v -96 -144 0
v -256 -144 0
v -240 -144 0
v -272 -144 0
v -288 -144 0
v -304 -144 0
v -320 -176 0
v -320 -160 0
v -320 -192 0
v -320 -208 0

# Texture cooridinates (Count = 60)
vt 0.3333384 0.5416718
vt 0.3749949 0.5416718
vt 0.3749949 0.5833282
vt 0.3333384 0.5833282
vt 0.2916718 0.5416718
vt 0.3333282 0.5416718
vt 0.3333282 0.5833282
vt 0.2916718 0.5833282
vt 0.04167175 0.5416718
vt 0.08332825 0.5416718
vt 0.08332825 0.5833282
vt 0.04167175 0.5833282
vt 0.04167175 0.5833384
vt 0.08332825 0.5833384
vt 0.08332825 0.6249949
vt 0.04167175 0.6249949
vt 0.08333842 0.5833384
vt 0.1249949 0.5833384
vt 0.1249949 0.6249949
vt 0.08333842 0.6249949
vt 0.1250051 0.3333384
vt 0.1666616 0.3333384
vt 0.1666616 0.3749949
vt 0.1250051 0.3749949
vt 0.04167175 0.3333384
vt 0.08332825 0.3333384
vt 0.08332825 0.3749949
vt 0.04167175 0.3749949
vt 5.086263E-06 0.3333384
vt 0.04166158 0.3333384
vt 0.04166158 0.3749949
vt 5.086263E-06 0.3749949
vt 1.19093E-05 0.7538762
vt 0.09754907 0.7538762
vt 0.09754907 0.99997
vt 1.19093E-05 0.99997
vt 0.4146461 0.4923378
vt 0.5121832 0.4923378
vt 0.5121832 0.7384315
vt 0.4146461 0.7384315
vt 0.207329 0.4923378
vt 0.3048661 0.4923378
vt 0.3048661 0.7384315
vt 0.207329 0.7384315
vt 0.4146461 0.7538762
vt 0.5121832 0.7538762
vt 0.5121832 0.99997
vt 0.4146461 0.99997
vt 0.3109875 0.4923378
vt 0.4085247 0.4923378
vt 0.4085247 0.7384315
vt 0.3109875 0.7384315
vt 0.3109875 0.7538762
vt 0.4085247 0.7538762
vt 0.4085247 0.99997
vt 0.3109875 0.99997
vt 0.207329 0.7538762
vt 0.3048661 0.7538762
vt 0.3048661 0.99997
vt 0.207329 0.99997

# Normal
vn 0 0 -1

# Groups (Count = 3)

g mesh_0001
f 1/1/1 2/2/1 3/3/1 4/4/1
f 5/5/1 6/6/1 7/7/1 8/8/1
f 6/5/1 9/6/1 10/7/1 7/8/1
f 9/5/1 11/6/1 12/7/1 10/8/1
f 11/5/1 13/6/1 14/7/1 12/8/1
f 13/5/1 15/6/1 16/7/1 14/8/1
f 15/5/1 17/6/1 18/7/1 16/8/1
f 17/5/1 19/6/1 20/7/1 18/8/1
f 19/5/1 21/6/1 22/7/1 20/8/1
f 21/5/1 23/6/1 24/7/1 22/8/1
f 23/5/1 25/6/1 26/7/1 24/8/1
f 25/5/1 27/6/1 28/7/1 26/8/1
f 27/5/1 29/6/1 30/7/1 28/8/1
f 29/5/1 31/6/1 32/7/1 30/8/1
f 31/5/1 33/6/1 34/7/1 32/8/1
f 33/5/1 35/6/1 36/7/1 34/8/1
f 35/5/1 37/6/1 38/7/1 36/8/1
f 37/5/1 39/6/1 40/7/1 38/8/1
f 39/5/1 41/6/1 42/7/1 40/8/1
f 41/5/1 43/6/1 44/7/1 42/8/1
f 43/5/1 45/6/1 46/7/1 44/8/1
f 45/5/1 47/6/1 48/7/1 46/8/1
f 47/5/1 49/6/1 50/7/1 48/8/1
f 49/5/1 51/6/1 52/7/1 50/8/1
f 51/5/1 53/6/1 54/7/1 52/8/1
f 53/5/1 55/6/1 56/7/1 54/8/1
f 55/5/1 57/6/1 58/7/1 56/8/1
f 57/5/1 59/6/1 60/7/1 58/8/1
f 59/5/1 61/6/1 62/7/1 60/8/1
f 63/1/1 64/2/1 2/3/1 1/4/1
f 65/1/1 66/2/1 6/3/1 5/4/1
f 67/1/1 68/2/1 31/3/1 29/4/1
f 68/1/1 69/2/1 33/3/1 31/4/1
f 70/1/1 71/2/1 64/3/1 63/4/1
f 72/1/1 73/2/1 66/3/1 65/4/1
f 74/1/1 75/2/1 68/3/1 67/4/1
f 75/1/1 76/2/1 69/3/1 68/4/1
f 77/1/1 78/2/1 71/3/1 70/4/1
f 79/1/1 80/2/1 73/3/1 72/4/1
f 81/1/1 82/2/1 75/3/1 74/4/1
f 82/1/1 83/2/1 76/3/1 75/4/1
f 84/1/1 85/2/1 78/3/1 77/4/1
f 86/1/1 87/2/1 80/3/1 79/4/1
f 88/5/1 89/6/1 90/7/1 91/8/1
f 89/5/1 92/6/1 93/7/1 90/8/1
f 92/5/1 94/6/1 95/7/1 93/8/1
f 94/5/1 96/6/1 97/7/1 95/8/1
f 96/5/1 98/6/1 99/7/1 97/8/1
f 98/5/1 100/6/1 101/7/1 99/8/1
f 100/5/1 102/6/1 103/7/1 101/8/1
f 102/5/1 104/6/1 81/7/1 103/8/1
f 104/1/1 105/2/1 82/3/1 81/4/1
f 105/1/1 106/2/1 83/3/1 82/4/1
f 107/5/1 108/6/1 109/7/1 110/8/1
f 108/5/1 111/6/1 112/7/1 109/8/1
f 111/5/1 113/6/1 114/7/1 112/8/1
f 113/5/1 115/6/1 116/7/1 114/8/1
f 115/5/1 117/6/1 118/7/1 116/8/1
f 119/1/1 120/2/1 85/3/1 84/4/1
f 121/1/1 122/2/1 87/3/1 86/4/1
f 123/1/1 124/2/1 89/3/1 88/4/1
f 124/1/1 125/2/1 92/3/1 89/4/1
f 125/1/1 126/2/1 94/3/1 92/4/1
f 126/1/1 127/2/1 96/3/1 94/4/1
f 127/1/1 128/2/1 98/3/1 96/4/1
f 128/1/1 129/2/1 100/3/1 98/4/1
f 129/1/1 130/2/1 102/3/1 100/4/1
f 130/1/1 131/2/1 104/3/1 102/4/1
f 131/1/1 132/2/1 105/3/1 104/4/1
f 132/1/1 133/2/1 106/3/1 105/4/1
f 134/9/1 135/10/1 108/11/1 107/12/1
f 135/1/1 136/2/1 111/3/1 108/4/1
f 136/1/1 137/2/1 113/3/1 111/4/1
f 137/1/1 138/2/1 115/3/1 113/4/1
f 138/5/1 139/6/1 117/7/1 115/8/1
f 140/1/1 141/2/1 120/3/1 119/4/1
f 142/1/1 143/2/1 122/3/1 121/4/1
f 144/9/1 145/10/1 136/11/1 135/12/1
f 145/1/1 146/2/1 137/3/1 136/4/1
f 146/1/1 147/2/1 138/3/1 137/4/1
f 147/5/1 148/6/1 139/7/1 138/8/1
f 149/1/1 150/2/1 141/3/1 140/4/1
f 151/1/1 152/2/1 143/3/1 142/4/1
f 153/9/1 154/10/1 146/11/1 145/12/1
f 154/1/1 155/2/1 147/3/1 146/4/1
f 155/5/1 156/6/1 148/7/1 147/8/1
f 157/1/1 158/2/1 150/3/1 149/4/1
f 159/1/1 160/2/1 152/3/1 151/4/1
f 161/9/1 162/10/1 155/11/1 154/12/1
f 162/5/1 163/6/1 156/7/1 155/8/1
f 164/1/1 165/2/1 158/3/1 157/4/1
f 166/1/1 167/2/1 160/3/1 159/4/1
f 168/5/1 169/6/1 163/7/1 162/8/1
f 170/1/1 171/2/1 165/3/1 164/4/1
f 172/1/1 173/2/1 167/3/1 166/4/1
f 173/5/1 174/6/1 175/7/1 167/8/1
f 174/5/1 176/6/1 177/7/1 175/8/1
f 176/5/1 178/6/1 179/7/1 177/8/1
f 178/5/1 180/6/1 181/7/1 179/8/1
f 180/5/1 182/6/1 183/7/1 181/8/1
f 182/5/1 184/6/1 185/7/1 183/8/1
f 184/5/1 186/6/1 187/7/1 185/8/1
f 186/5/1 188/6/1 189/7/1 187/8/1
f 188/5/1 190/6/1 191/7/1 189/8/1
f 190/5/1 192/6/1 193/7/1 191/8/1
f 192/5/1 194/6/1 195/7/1 193/8/1
f 194/5/1 196/6/1 197/7/1 195/8/1
f 196/5/1 198/6/1 199/7/1 197/8/1
f 198/5/1 200/6/1 201/7/1 199/8/1
f 202/5/1 203/6/1 169/7/1 168/8/1
f 204/1/1 205/2/1 171/3/1 170/4/1
f 206/1/1 207/2/1 173/3/1 172/4/1
f 207/1/1 208/2/1 174/3/1 173/4/1
f 208/1/1 209/2/1 176/3/1 174/4/1
f 209/1/1 210/2/1 178/3/1 176/4/1
f 210/1/1 211/2/1 180/3/1 178/4/1
f 211/1/1 212/2/1 182/3/1 180/4/1
f 212/1/1 213/2/1 184/3/1 182/4/1
f 213/1/1 214/2/1 186/3/1 184/4/1
f 214/1/1 215/2/1 188/3/1 186/4/1
f 215/1/1 216/2/1 190/3/1 188/4/1
f 216/1/1 217/2/1 192/3/1 190/4/1
f 217/1/1 218/2/1 194/3/1 192/4/1
f 218/1/1 219/2/1 196/3/1 194/4/1
f 219/1/1 220/2/1 198/3/1 196/4/1
f 220/5/1 221/6/1 200/7/1 198/8/1
f 222/5/1 223/6/1 203/7/1 202/8/1
f 224/1/1 225/2/1 205/3/1 204/4/1
f 226/1/1 227/2/1 207/3/1 206/4/1
f 227/1/1 228/2/1 208/3/1 207/4/1
f 228/1/1 229/2/1 209/3/1 208/4/1
f 229/1/1 230/2/1 210/3/1 209/4/1
f 230/1/1 231/2/1 211/3/1 210/4/1
f 231/1/1 232/2/1 212/3/1 211/4/1
f 232/1/1 233/2/1 213/3/1 212/4/1
f 233/1/1 234/2/1 214/3/1 213/4/1
f 234/1/1 235/2/1 215/3/1 214/4/1
f 235/1/1 236/2/1 216/3/1 215/4/1
f 236/1/1 237/2/1 217/3/1 216/4/1
f 237/1/1 238/2/1 218/3/1 217/4/1
f 238/1/1 239/2/1 219/3/1 218/4/1
f 239/1/1 240/2/1 220/3/1 219/4/1
f 240/5/1 241/6/1 221/7/1 220/8/1
f 242/5/1 243/6/1 223/7/1 222/8/1
f 244/1/1 245/2/1 225/3/1 224/4/1
f 246/5/1 247/6/1 227/7/1 226/8/1
f 247/5/1 248/6/1 228/7/1 227/8/1
f 248/5/1 249/6/1 229/7/1 228/8/1
f 249/5/1 250/6/1 230/7/1 229/8/1
f 250/5/1 251/6/1 231/7/1 230/8/1
f 251/5/1 252/6/1 232/7/1 231/8/1
f 252/5/1 253/6/1 233/7/1 232/8/1
f 253/5/1 254/6/1 234/7/1 233/8/1
f 254/5/1 255/6/1 235/7/1 234/8/1
f 255/5/1 256/6/1 236/7/1 235/8/1
f 256/5/1 257/6/1 237/7/1 236/8/1
f 257/5/1 258/6/1 238/7/1 237/8/1
f 258/5/1 259/6/1 239/7/1 238/8/1
f 259/5/1 260/6/1 240/7/1 239/8/1
f 260/5/1 261/6/1 241/7/1 240/8/1
f 262/5/1 263/6/1 243/7/1 242/8/1
f 264/1/1 265/2/1 245/3/1 244/4/1
f 266/5/1 267/6/1 263/7/1 262/8/1
f 268/1/1 269/2/1 265/3/1 264/4/1
f 270/13/1 271/14/1 272/15/1 273/16/1
f 271/5/1 274/6/1 275/7/1 272/8/1
f 274/5/1 276/6/1 277/7/1 275/8/1
f 276/5/1 278/6/1 279/7/1 277/8/1
f 278/5/1 280/6/1 281/7/1 279/8/1
f 280/5/1 282/6/1 283/7/1 281/8/1
f 282/5/1 284/6/1 285/7/1 283/8/1
f 284/5/1 286/6/1 266/7/1 285/8/1
f 286/5/1 287/6/1 267/7/1 266/8/1
f 288/1/1 289/2/1 269/3/1 268/4/1
f 289/5/1 290/6/1 291/7/1 269/8/1
f 290/5/1 292/6/1 293/7/1 291/8/1
f 292/5/1 294/6/1 295/7/1 293/8/1
f 294/5/1 296/6/1 297/7/1 295/8/1
f 296/17/1 298/18/1 299/19/1 297/20/1
f 300/13/1 301/14/1 270/15/1 302/16/1
f 301/1/1 303/2/1 271/3/1 270/4/1
f 303/1/1 304/2/1 274/3/1 271/4/1
f 304/1/1 305/2/1 276/3/1 274/4/1
f 305/1/1 306/2/1 278/3/1 276/4/1
f 306/1/1 307/2/1 280/3/1 278/4/1
f 307/1/1 308/2/1 282/3/1 280/4/1
f 308/1/1 309/2/1 284/3/1 282/4/1
f 309/1/1 310/2/1 286/3/1 284/4/1
f 310/1/1 311/2/1 287/3/1 286/4/1
f 312/1/1 313/2/1 289/3/1 288/4/1
f 313/1/1 314/2/1 290/3/1 289/4/1
f 314/1/1 315/2/1 292/3/1 290/4/1
f 315/1/1 316/2/1 294/3/1 292/4/1
f 316/1/1 317/2/1 296/3/1 294/4/1
f 317/5/1 318/6/1 298/7/1 296/8/1
f 318/5/1 319/6/1 320/7/1 298/8/1
f 319/5/1 321/6/1 322/7/1 320/8/1
f 321/5/1 323/6/1 324/7/1 322/8/1
f 323/5/1 325/6/1 326/7/1 324/8/1
f 325/5/1 327/6/1 328/7/1 326/8/1
f 327/5/1 329/6/1 330/7/1 328/8/1
f 329/5/1 331/6/1 332/7/1 330/8/1
f 331/5/1 333/6/1 334/7/1 332/8/1
f 333/5/1 335/6/1 336/7/1 334/8/1
f 335/5/1 337/6/1 338/7/1 336/8/1
f 337/5/1 339/6/1 340/7/1 338/8/1
f 339/5/1 341/6/1 342/7/1 340/8/1
f 341/5/1 343/6/1 344/7/1 342/8/1
f 343/5/1 345/6/1 346/7/1 344/8/1
f 345/5/1 347/6/1 348/7/1 346/8/1
f 347/5/1 349/6/1 300/7/1 348/8/1
f 349/1/1 350/2/1 301/3/1 300/4/1
f 350/1/1 351/2/1 303/3/1 301/4/1
f 351/1/1 352/2/1 304/3/1 303/4/1
f 352/1/1 353/2/1 305/3/1 304/4/1
f 353/1/1 354/2/1 306/3/1 305/4/1
f 354/1/1 355/2/1 307/3/1 306/4/1
f 355/1/1 356/2/1 308/3/1 307/4/1
f 356/1/1 357/2/1 309/3/1 308/4/1
f 357/1/1 358/2/1 310/3/1 309/4/1
f 358/1/1 359/2/1 311/3/1 310/4/1

g mesh_0002
f 66/21/1 360/22/1 9/23/1 6/24/1
f 361/25/1 362/26/1 15/27/1 13/28/1
f 362/25/1 363/26/1 17/27/1 15/28/1
f 73/21/1 364/22/1 360/23/1 66/24/1
f 80/21/1 365/22/1 364/23/1 73/24/1
f 87/21/1 366/22/1 365/23/1 80/24/1
f 122/21/1 367/22/1 366/23/1 87/24/1
f 143/21/1 368/22/1 367/23/1 122/24/1
f 369/25/1 370/26/1 127/27/1 126/28/1
f 370/25/1 371/26/1 128/27/1 127/28/1
f 152/21/1 372/22/1 368/23/1 143/24/1
f 160/21/1 373/22/1 372/23/1 152/24/1
f 167/21/1 175/22/1 373/23/1 160/24/1
f 193/29/1 195/30/1 374/31/1 375/32/1
f 195/29/1 197/30/1 376/31/1 374/32/1
f 197/29/1 199/30/1 377/31/1 376/32/1
f 199/29/1 201/30/1 378/31/1 377/32/1
f 200/21/1 379/22/1 380/23/1 201/24/1
f 221/21/1 381/22/1 379/23/1 200/24/1
f 241/21/1 382/22/1 381/23/1 221/24/1

g mesh_0003
f 1/33/1 2/34/1 3/35/1 4/36/1
f 5/33/1 6/34/1 7/35/1 8/36/1
f 6/33/1 9/34/1 10/35/1 7/36/1
f 9/33/1 11/34/1 12/35/1 10/36/1
f 11/33/1 13/34/1 14/35/1 12/36/1
f 13/33/1 15/34/1 16/35/1 14/36/1
f 15/33/1 17/34/1 18/35/1 16/36/1
f 17/33/1 19/34/1 20/35/1 18/36/1
f 19/33/1 21/34/1 22/35/1 20/36/1
f 21/33/1 23/34/1 24/35/1 22/36/1
f 23/33/1 25/34/1 26/35/1 24/36/1
f 25/33/1 27/34/1 28/35/1 26/36/1
f 27/33/1 29/34/1 30/35/1 28/36/1
f 29/33/1 31/34/1 32/35/1 30/36/1
f 31/33/1 33/34/1 34/35/1 32/36/1
f 33/33/1 35/34/1 36/35/1 34/36/1
f 35/33/1 37/34/1 38/35/1 36/36/1
f 37/33/1 39/34/1 40/35/1 38/36/1
f 39/33/1 41/34/1 42/35/1 40/36/1
f 41/33/1 43/34/1 44/35/1 42/36/1
f 43/33/1 45/34/1 46/35/1 44/36/1
f 45/33/1 47/34/1 48/35/1 46/36/1
f 47/33/1 49/34/1 50/35/1 48/36/1
f 49/33/1 51/34/1 52/35/1 50/36/1
f 51/33/1 53/34/1 54/35/1 52/36/1
f 53/33/1 55/34/1 56/35/1 54/36/1
f 55/33/1 57/34/1 58/35/1 56/36/1
f 57/33/1 59/34/1 60/35/1 58/36/1
f 59/33/1 61/34/1 62/35/1 60/36/1
f 63/33/1 64/34/1 2/35/1 1/36/1
f 65/33/1 66/34/1 6/35/1 5/36/1
f 66/37/1 360/38/1 9/39/1 6/40/1
f 361/41/1 362/42/1 15/43/1 13/44/1
f 362/41/1 363/42/1 17/43/1 15/44/1
f 67/33/1 68/34/1 31/35/1 29/36/1
f 68/33/1 69/34/1 33/35/1 31/36/1
f 70/33/1 71/34/1 64/35/1 63/36/1
f 72/33/1 73/34/1 66/35/1 65/36/1
f 73/37/1 364/38/1 360/39/1 66/40/1
f 74/33/1 75/34/1 68/35/1 67/36/1
f 75/33/1 76/34/1 69/35/1 68/36/1
f 77/33/1 78/34/1 71/35/1 70/36/1
f 79/33/1 80/34/1 73/35/1 72/36/1
f 80/37/1 365/38/1 364/39/1 73/40/1
f 81/33/1 82/34/1 75/35/1 74/36/1
f 82/33/1 83/34/1 76/35/1 75/36/1
f 84/33/1 85/34/1 78/35/1 77/36/1
f 86/33/1 87/34/1 80/35/1 79/36/1
f 87/37/1 366/38/1 365/39/1 80/40/1
f 88/33/1 89/34/1 90/35/1 91/36/1
f 89/33/1 92/34/1 93/35/1 90/36/1
f 92/33/1 94/34/1 95/35/1 93/36/1
f 94/33/1 96/34/1 97/35/1 95/36/1
f 96/33/1 98/34/1 99/35/1 97/36/1
f 98/33/1 100/34/1 101/35/1 99/36/1
f 100/33/1 102/34/1 103/35/1 101/36/1
f 102/33/1 104/34/1 81/35/1 103/36/1
f 104/33/1 105/34/1 82/35/1 81/36/1
f 105/33/1 106/34/1 83/35/1 82/36/1
f 107/33/1 108/34/1 109/35/1 110/36/1
f 108/33/1 111/34/1 112/35/1 109/36/1
f 111/33/1 113/34/1 114/35/1 112/36/1
f 113/33/1 115/34/1 116/35/1 114/36/1
f 115/33/1 117/34/1 118/35/1 116/36/1
f 119/33/1 120/34/1 85/35/1 84/36/1
f 121/33/1 122/34/1 87/35/1 86/36/1
f 122/37/1 367/38/1 366/39/1 87/40/1
f 123/33/1 124/34/1 89/35/1 88/36/1
f 124/33/1 125/34/1 92/35/1 89/36/1
f 125/33/1 126/34/1 94/35/1 92/36/1
f 126/33/1 127/34/1 96/35/1 94/36/1
f 127/33/1 128/34/1 98/35/1 96/36/1
f 128/33/1 129/34/1 100/35/1 98/36/1
f 129/33/1 130/34/1 102/35/1 100/36/1
f 130/33/1 131/34/1 104/35/1 102/36/1
f 131/33/1 132/34/1 105/35/1 104/36/1
f 132/33/1 133/34/1 106/35/1 105/36/1
f 134/45/1 135/46/1 108/47/1 107/48/1
f 135/33/1 136/34/1 111/35/1 108/36/1
f 136/33/1 137/34/1 113/35/1 111/36/1
f 137/33/1 138/34/1 115/35/1 113/36/1
f 138/33/1 139/34/1 117/35/1 115/36/1
f 140/33/1 141/34/1 120/35/1 119/36/1
f 142/33/1 143/34/1 122/35/1 121/36/1
f 143/37/1 368/38/1 367/39/1 122/40/1
f 369/41/1 370/42/1 127/43/1 126/44/1
f 370/41/1 371/42/1 128/43/1 127/44/1
f 144/45/1 145/46/1 136/47/1 135/48/1
f 145/33/1 146/34/1 137/35/1 136/36/1
f 146/33/1 147/34/1 138/35/1 137/36/1
f 147/33/1 148/34/1 139/35/1 138/36/1
f 149/33/1 150/34/1 141/35/1 140/36/1
f 151/33/1 152/34/1 143/35/1 142/36/1
f 152/37/1 372/38/1 368/39/1 143/40/1
f 153/45/1 154/46/1 146/47/1 145/48/1
f 154/33/1 155/34/1 147/35/1 146/36/1
f 155/33/1 156/34/1 148/35/1 147/36/1
f 157/33/1 158/34/1 150/35/1 149/36/1
f 159/33/1 160/34/1 152/35/1 151/36/1
f 160/37/1 373/38/1 372/39/1 152/40/1
f 161/45/1 162/46/1 155/47/1 154/48/1
f 162/33/1 163/34/1 156/35/1 155/36/1
f 164/33/1 165/34/1 158/35/1 157/36/1
f 166/33/1 167/34/1 160/35/1 159/36/1
f 167/37/1 175/38/1 373/39/1 160/40/1
f 193/49/1 195/50/1 374/51/1 375/52/1
f 195/49/1 197/50/1 376/51/1 374/52/1
f 197/49/1 199/50/1 377/51/1 376/52/1
f 199/49/1 201/50/1 378/51/1 377/52/1
f 168/33/1 169/34/1 163/35/1 162/36/1
f 170/33/1 171/34/1 165/35/1 164/36/1
f 172/33/1 173/34/1 167/35/1 166/36/1
f 173/33/1 174/34/1 175/35/1 167/36/1
f 174/33/1 176/34/1 177/35/1 175/36/1
f 176/33/1 178/34/1 179/35/1 177/36/1
f 178/33/1 180/34/1 181/35/1 179/36/1
f 180/33/1 182/34/1 183/35/1 181/36/1
f 182/33/1 184/34/1 185/35/1 183/36/1
f 184/33/1 186/34/1 187/35/1 185/36/1
f 186/33/1 188/34/1 189/35/1 187/36/1
f 188/33/1 190/34/1 191/35/1 189/36/1
f 190/33/1 192/34/1 193/35/1 191/36/1
f 192/33/1 194/34/1 195/35/1 193/36/1
f 194/33/1 196/34/1 197/35/1 195/36/1
f 196/33/1 198/34/1 199/35/1 197/36/1
f 198/33/1 200/34/1 201/35/1 199/36/1
f 200/37/1 379/38/1 380/39/1 201/40/1
f 202/33/1 203/34/1 169/35/1 168/36/1
f 204/33/1 205/34/1 171/35/1 170/36/1
f 206/33/1 207/34/1 173/35/1 172/36/1
f 207/33/1 208/34/1 174/35/1 173/36/1
f 208/33/1 209/34/1 176/35/1 174/36/1
f 209/33/1 210/34/1 178/35/1 176/36/1
f 210/33/1 211/34/1 180/35/1 178/36/1
f 211/33/1 212/34/1 182/35/1 180/36/1
f 212/33/1 213/34/1 184/35/1 182/36/1
f 213/33/1 214/34/1 186/35/1 184/36/1
f 214/33/1 215/34/1 188/35/1 186/36/1
f 215/33/1 216/34/1 190/35/1 188/36/1
f 216/33/1 217/34/1 192/35/1 190/36/1
f 217/33/1 218/34/1 194/35/1 192/36/1
f 218/33/1 219/34/1 196/35/1 194/36/1
f 219/33/1 220/34/1 198/35/1 196/36/1
f 220/33/1 221/34/1 200/35/1 198/36/1
f 221/37/1 381/38/1 379/39/1 200/40/1
f 222/33/1 223/34/1 203/35/1 202/36/1
f 224/33/1 225/34/1 205/35/1 204/36/1
f 226/33/1 227/34/1 207/35/1 206/36/1
f 227/33/1 228/34/1 208/35/1 207/36/1
f 228/33/1 229/34/1 209/35/1 208/36/1
f 229/33/1 230/34/1 210/35/1 209/36/1
f 230/33/1 231/34/1 211/35/1 210/36/1
f 231/33/1 232/34/1 212/35/1 211/36/1
f 232/33/1 233/34/1 213/35/1 212/36/1
f 233/33/1 234/34/1 214/35/1 213/36/1
f 234/33/1 235/34/1 215/35/1 214/36/1
f 235/33/1 236/34/1 216/35/1 215/36/1
f 236/33/1 237/34/1 217/35/1 216/36/1
f 237/33/1 238/34/1 218/35/1 217/36/1
f 238/33/1 239/34/1 219/35/1 218/36/1
f 239/33/1 240/34/1 220/35/1 219/36/1
f 240/33/1 241/34/1 221/35/1 220/36/1
f 241/37/1 382/38/1 381/39/1 221/40/1
f 242/33/1 243/34/1 223/35/1 222/36/1
f 244/33/1 245/34/1 225/35/1 224/36/1
f 246/33/1 247/34/1 227/35/1 226/36/1
f 247/33/1 248/34/1 228/35/1 227/36/1
f 248/33/1 249/34/1 229/35/1 228/36/1
f 249/33/1 250/34/1 230/35/1 229/36/1
f 250/33/1 251/34/1 231/35/1 230/36/1
f 251/33/1 252/34/1 232/35/1 231/36/1
f 252/33/1 253/34/1 233/35/1 232/36/1
f 253/33/1 254/34/1 234/35/1 233/36/1
f 254/33/1 255/34/1 235/35/1 234/36/1
f 255/33/1 256/34/1 236/35/1 235/36/1
f 256/33/1 257/34/1 237/35/1 236/36/1
f 257/33/1 258/34/1 238/35/1 237/36/1
f 258/33/1 259/34/1 239/35/1 238/36/1
f 259/33/1 260/34/1 240/35/1 239/36/1
f 260/33/1 261/34/1 241/35/1 240/36/1
f 262/33/1 263/34/1 243/35/1 242/36/1
f 264/33/1 265/34/1 245/35/1 244/36/1
f 266/33/1 267/34/1 263/35/1 262/36/1
f 268/33/1 269/34/1 265/35/1 264/36/1
f 270/53/1 271/54/1 272/55/1 273/56/1
f 271/33/1 274/34/1 275/35/1 272/36/1
f 274/33/1 276/34/1 277/35/1 275/36/1
f 276/33/1 278/34/1 279/35/1 277/36/1
f 278/33/1 280/34/1 281/35/1 279/36/1
f 280/33/1 282/34/1 283/35/1 281/36/1
f 282/33/1 284/34/1 285/35/1 283/36/1
f 284/33/1 286/34/1 266/35/1 285/36/1
f 286/33/1 287/34/1 267/35/1 266/36/1
f 288/33/1 289/34/1 269/35/1 268/36/1
f 289/33/1 290/34/1 291/35/1 269/36/1
f 290/33/1 292/34/1 293/35/1 291/36/1
f 292/33/1 294/34/1 295/35/1 293/36/1
f 294/33/1 296/34/1 297/35/1 295/36/1
f 296/57/1 298/58/1 299/59/1 297/60/1
f 300/53/1 301/54/1 270/55/1 302/56/1
f 301/33/1 303/34/1 271/35/1 270/36/1
f 303/33/1 304/34/1 274/35/1 271/36/1
f 304/33/1 305/34/1 276/35/1 274/36/1
f 305/33/1 306/34/1 278/35/1 276/36/1
f 306/33/1 307/34/1 280/35/1 278/36/1
f 307/33/1 308/34/1 282/35/1 280/36/1
f 308/33/1 309/34/1 284/35/1 282/36/1
f 309/33/1 310/34/1 286/35/1 284/36/1
f 310/33/1 311/34/1 287/35/1 286/36/1
f 312/33/1 313/34/1 289/35/1 288/36/1
f 313/33/1 314/34/1 290/35/1 289/36/1
f 314/33/1 315/34/1 292/35/1 290/36/1
f 315/33/1 316/34/1 294/35/1 292/36/1
f 316/33/1 317/34/1 296/35/1 294/36/1
f 317/33/1 318/34/1 298/35/1 296/36/1
f 318/33/1 319/34/1 320/35/1 298/36/1
f 319/33/1 321/34/1 322/35/1 320/36/1
f 321/33/1 323/34/1 324/35/1 322/36/1
f 323/33/1 325/34/1 326/35/1 324/36/1
f 325/33/1 327/34/1 328/35/1 326/36/1
f 327/33/1 329/34/1 330/35/1 328/36/1
f 329/33/1 331/34/1 332/35/1 330/36/1
f 331/33/1 333/34/1 334/35/1 332/36/1
f 333/33/1 335/34/1 336/35/1 334/36/1
f 335/33/1 337/34/1 338/35/1 336/36/1
f 337/33/1 339/34/1 340/35/1 338/36/1
f 339/33/1 341/34/1 342/35/1 340/36/1
f 341/33/1 343/34/1 344/35/1 342/36/1
f 343/33/1 345/34/1 346/35/1 344/36/1
f 345/33/1 347/34/1 348/35/1 346/36/1
f 347/33/1 349/34/1 300/35/1 348/36/1
f 349/33/1 350/34/1 301/35/1 300/36/1
f 350/33/1 351/34/1 303/35/1 301/36/1
f 351/33/1 352/34/1 304/35/1 303/36/1
f 352/33/1 353/34/1 305/35/1 304/36/1
f 353/33/1 354/34/1 306/35/1 305/36/1
f 354/33/1 355/34/1 307/35/1 306/36/1
f 355/33/1 356/34/1 308/35/1 307/36/1
f 356/33/1 357/34/1 309/35/1 308/36/1
f 357/33/1 358/34/1 310/35/1 309/36/1
f 358/33/1 359/34/1 311/35/1 310/36/1

